<svg xmlns="http://www.w3.org/2000/svg" version="1.1" xmlns:xlink="http://www.w3.org/1999/xlink" xmlns:svgjs="http://svgjs.com/svgjs" width="1000" height="1000"><rect width="1000" height="1000" rx="200" ry="200" fill="#e62272"></rect><g transform="matrix(0.68359375,0,0,0.68359375,147.88007426261902,151.4608587026596)"><svg xmlns="http://www.w3.org/2000/svg" version="1.1" xmlns:xlink="http://www.w3.org/1999/xlink" xmlns:svgjs="http://svgjs.com/svgjs" width="1024" height="1024"><svg version="1.1" id="Laag_1" xmlns="http://www.w3.org/2000/svg" xmlns:xlink="http://www.w3.org/1999/xlink" x="0px" y="0px" viewBox="0 0 1024 1024" style="enable-background:new 0 0 1024 1024;" xml:space="preserve">
<style type="text/css">
	.st0{fill:#FFFFFF;}
</style>
<g>
	<g>
		<path class="st0" d="M188.9,902V751.7h-30.6v-17.3h83.5v17.3h-29.5V902H188.9z"></path>
		<path class="st0" d="M254.6,902V734.4h23.3v72.4H321v-72.4h23.3V902H321v-78.5h-43.1V902H254.6z"></path>
		<path class="st0" d="M361.3,902l35.8-167.6h22.5L455.4,902h-22.2l-7.7-42.2h-34.1l-8,42.2H361.3z M394.5,843.1h28l-14-75.7
			L394.5,843.1z"></path>
		<path class="st0" d="M472.4,902V734.4h36.4c18.1,0,30.9,4.1,38.4,12.3c7.4,8.2,11.2,21.2,11.2,38.8v61.7
			c0,18.4-3.7,32.1-11.1,41.2c-7.4,9.1-19.6,13.6-36.7,13.6H472.4z M495.7,885.2h13.1c3.6,0,6.7-0.4,9.5-1.1c2.7-0.7,5-1.5,6.8-2.5
			c1.8-1,3.4-2.5,4.6-4.7c1.2-2.2,2.2-4.1,2.8-6c0.6-1.8,1.1-4.5,1.5-8.1c0.3-3.6,0.5-6.6,0.6-9.1c0.1-2.5,0.1-6.2,0.1-11v-54.5
			c0-4-0.1-7.4-0.2-10.2c-0.1-2.8-0.4-5.5-0.8-8.3c-0.4-2.8-1-5-1.8-6.8c-0.8-1.8-1.9-3.4-3.1-5c-1.3-1.6-2.9-2.8-4.8-3.6
			c-1.9-0.8-4.1-1.5-6.7-2c-2.6-0.5-5.6-0.7-9-0.7h-12.6V885.2z"></path>
		<path class="st0" d="M580.9,902l3.1-167.6h22.8l29.6,135.9l29.8-135.9h22.8l3.1,167.6h-18.9l-1.8-121.8L643.2,902h-13.1
			l-28.2-121.8L600,902H580.9z"></path>
		<path class="st0" d="M719.2,902V734.4h22.9V902H719.2z"></path>
		<path class="st0" d="M769.3,902V734.4h15.9l47.6,111.3V734.4h19.5V902h-15L789,787.5V902H769.3z"></path>
	</g>
	<g id="_x35_cX673_1_">
		<g>
			<path class="st0" d="M384.7,465.7c43-2.7,52.5,7.9,50.1,49.4c-0.4,7.7,0.1,15.5-0.1,23.2c-0.5,16.4-11.9,28.4-28.2,29
				c-15,0.5-30.1,0.5-45.1,0c-16.2-0.6-27.9-12.7-28.4-29.1c-0.4-14.1-0.3-28.2-0.1-42.4c0.4-18.1,12-29.8,29.9-30.2
				C370.1,465.5,377.4,465.7,384.7,465.7z M409.7,516.8c0-26.2,0-26.3-26.8-26.1c-29.1,0.2-24.9-3.7-24.9,25.4
				c0,30.1-3.8,26.2,25.6,26.3C409.7,542.7,409.7,542.5,409.7,516.8z"></path>
			<path class="st0" d="M434.7,261c2.6,41.8-7.4,52.2-49.9,49.6c-7.3-0.4-14.6,0.1-21.9-0.1c-17.9-0.4-29.6-12.1-30-30.1
				c-0.3-14.1-0.4-28.2,0-42.4c0.5-17,12.5-28.8,29.6-29.3c14.1-0.4,28.2-0.4,42.4,0c17.9,0.4,29.3,12.3,29.7,30.3
				C434.8,246.4,434.7,253.7,434.7,261z M409.7,259.5c0-25.9,0-26-26-25.9c-29.6,0.2-25.9-3.8-25.8,26.1
				c0.1,29.7-4.4,25.4,26.1,25.6C409.7,285.7,409.7,285.5,409.7,259.5z"></path>
			<path class="st0" d="M640,310.5c-42.7,2.5-50.6-7.1-50.7-50.7c-0.1-44,8.8-51.6,52-51.7c41.7-0.1,51.2,8.6,51,51.6
				C692.1,302,684.9,313.5,640,310.5z M666.7,259.6c-0.4-29.7,3.8-25.9-26.1-25.8c-29.7,0.1-25.4-4.4-25.7,26
				c-0.2,25.7,0,25.7,25.9,25.7C666.7,285.5,666.7,285.5,666.7,259.6z"></path>
			<path class="st0" d="M256,216.9c-5.4-58.2,25-90.4,85.6-85.1c9,0.8,18.2,0.3,27.3,0.1c8.8-0.1,14.4,3.9,14.2,12.7
				c-0.1,8.9-6.2,12.4-14.8,12.3c-14.6-0.1-29.2-0.1-43.7,0c-28.3,0.2-43.5,15.6-43.6,44.2c-0.1,13.7-0.2,27.3,0,41
				c0.2,9.3-2.1,17-13,16.9c-9.9-0.1-12.5-7.3-12.2-16.2C256.3,234.2,256,225.5,256,216.9z"></path>
			<path class="st0" d="M684.1,132c8.2,0,16.4-0.3,24.6,0.1c32.1,1.5,58.4,27.9,59.5,60.1c0.6,17.3,0,34.6,0.3,51.9
				c0.1,8.6-3.1,14.7-12.1,14.9c-9.9,0.2-13.1-6.3-13-15.4c0.1-15,0.2-30.1,0-45.1c-0.3-25.6-16.2-41.3-42.1-41.6
				c-13.2-0.1-26.4-0.1-39.6,0c-9.4,0.1-20,0.6-20.2-12.2c-0.2-14,11.1-12.9,20.8-12.8c7.3,0.1,14.6,0,21.9,0
				C684.1,131.9,684.1,131.9,684.1,132z"></path>
			<path class="st0" d="M256.1,558.3c0-9.6-1.3-19.4,0.5-28.6c0.9-4.8,7.3-8.5,11.2-12.6c4.4,4.2,12.1,8.1,12.6,12.7
				c1.6,15.8,0.5,31.8,0.7,47.8c0.3,25.7,16.2,41.5,41.9,41.8c15,0.2,30.1,0.1,45.1,0c8.4-0.1,14.8,3,15.1,12
				c0.3,9.8-6,13.2-15.2,13.1c-15.9-0.2-31.9,0.1-47.8-0.1c-36.9-0.6-63.4-27.2-64-64.1C255.9,572.9,256.1,565.6,256.1,558.3z"></path>
			<path class="st0" d="M768.4,559.9c0,8.2,0.3,16.4-0.1,24.6c-1.4,32.1-27.8,58.5-60,59.6c-17.3,0.6-34.6,0-51.9,0.3
				c-8.5,0.1-14.7-3-15-12c-0.3-9.9,6.2-13.2,15.3-13.1c15.5,0.1,31,0.3,46.5,0c24-0.5,39.9-16.6,40.3-40.7c0.3-15.5,0.1-31,0-46.5
				c-0.1-8.5,3.1-14.8,12.1-14.9c9.8-0.2,13.2,6.2,13,15.4c-0.3,9.1-0.1,18.2-0.1,27.3C768.5,559.9,768.4,559.9,768.4,559.9z"></path>
			<path class="st0" d="M589.7,542.1c8.8,0,16,0,24,0c3-9.4-2.4-25,14.2-24.8c16,0.2,10.6,14.9,13.3,24.5c8.4,0,16.3,0,24.9,0
				c0.3-5.2-0.9-10.4,1.1-13.9c2.6-4.4,7.7-10.2,11.8-10.2c4.2,0,11.1,5.6,12,9.7c1.8,9.2,2.2,19.4,0,28.4
				c-1.2,4.7-8.9,11-13.9,11.1c-32.8,1-65.6,0.6-98.4,0.3c-3.7,0-10.4-2.3-10.6-3.9c-1.1-14-1.3-28-0.7-42c0.1-1.5,8-4.3,11.7-3.5
				c3.5,0.8,7.4,5,8.9,8.6C589.7,530.9,589.2,536.2,589.7,542.1z"></path>
			<path class="st0" d="M538.6,337.6c0,8.5,0,16,0,24.2c5.1,0.4,10.5-0.7,13.7,1.6c4.5,3.2,9.6,8.6,10,13.4c0.3,3.2-7,9.8-11.2,10.1
				c-16.3,1.2-32.7,0.4-49.1,0.6c-8.5,0.1-14.7-3-14.9-12c-0.1-8.8,6-12.6,14.4-13c3.1-0.1,6.3-0.4,10.4-0.6c0-7.8,0-15.3,0-25.1
				c-10.7,0-21.4,0-32.1,0c-9.2,0-18.4-1.3-18.2-13.2c0.1-11.2,8.9-12,17.6-12c21.4,0,42.8,0,64.2,0c8.8,0,18.9-0.6,19.4,11.5
				c0.6,12.8-9.5,13.5-19.1,13.8C542.4,336.9,541.1,337.2,538.6,337.6z"></path>
			<path class="st0" d="M537.3,465.7c0-9.4,0-17.3,0-25.9c-4.7-0.3-9.5,0.8-12.4-1.1c-4.6-3-11.1-8-11-12.1c0.1-4.3,6.3-10.9,11-12
				c8.2-2,17.6-2.1,25.6,0c5,1.3,11.7,8,12.2,12.7c1.5,16.2,0.6,32.7,0.6,49c0,9.7-5.4,14.2-14.5,14.2c-24.5,0.2-49.1,0.2-73.6-0.1
				c-8.4-0.1-15.2-4.8-13-13.3c1.2-4.7,8.6-10.7,13.5-11C495.9,465,516.3,465.7,537.3,465.7z"></path>
			<path class="st0" d="M538.1,233.7c-20.5,0-39.5-0.1-58.5,0.1c-9.4,0.1-18.3-0.8-18-12.9c0.3-11,8.7-12.2,17.6-12.2
				c22.3,0.1,44.6,0.3,66.9-0.1c12.1-0.2,17.6,4.8,17.3,17.1c-0.4,14.5-0.3,29.1,0,43.7c0.2,9.2-3.4,15.9-12.8,15.7
				c-9.3-0.2-12.7-7.3-12.5-16.2C538.3,257.5,538.1,246.3,538.1,233.7z"></path>
			<path class="st0" d="M615.4,465c8.8,0,16.3,0,24.4,0c0.4-4.2,0.9-7.8,1.1-11.4c0.5-9.6,5.9-13.9,15-14.1
				c7.3-0.2,15.1-1.6,21.7,0.5c5.4,1.7,12.4,7,13.4,11.9c1.9,8.8-5.4,12.4-13.7,12.7c-3.1,0.1-6.3,0.5-10.3,0.8
				c-0.3,4.3,0.7,9.1-1.2,12c-3.4,5-8.2,12.2-13,12.6c-16.7,1.5-33.8,1.5-50.5-0.1c-4.5-0.4-10.2-7.8-11.8-13
				c-2.1-6.7-0.3-14.4-0.6-21.7c-0.4-8.6,2.8-14.8,11.8-15.1c8.8-0.3,13,5.4,13.2,14C614.9,457.3,615.1,460.4,615.4,465z"></path>
			<path class="st0" d="M487.1,541.9c-0.4,6.1,0.8,11.4-1.3,14.8c-2.7,4.4-7.8,10-12,10c-4,0-10.9-5.7-11.7-9.8
				c-1.7-9.7-2-20.1,0.1-29.7c0.9-4.3,8.5-9.6,13.4-10c15.8-1.3,31.7-0.6,47.6-0.4c8.3,0.1,14.5,3.9,14.2,12.9
				c-0.3,8.9-6.5,12.3-14.8,12.3C510.9,541.9,499.2,541.9,487.1,541.9z"></path>
			<path class="st0" d="M666.8,389.1c-10.4-3.5-25.4,2.6-25.3-13.9c0.1-16,14.5-11.2,24.7-13.8c0.2-4.3-0.9-9.6,1-13
				c2.5-4.5,7.5-10.3,11.6-10.4c4.1-0.1,11.9,5.7,12.1,9.4c1.3,18.6,1.3,37.4,0,55.9c-0.2,3.6-8.2,9.4-12.4,9.3
				c-4-0.2-8.8-6.2-11.4-10.7C665.4,398.8,666.8,393.9,666.8,389.1z"></path>
			<path class="st0" d="M435.4,361.6c5.5,0.5,11.3-0.5,15,1.8c4.3,2.7,9.5,8.4,9.3,12.5c-0.2,3.9-6.4,9.9-10.8,10.8
				c-8.7,1.7-18.1,1.1-27.1,0.4c-15.1-1.2-10.9-13.9-12.9-24.1c-4.6-0.4-10.3,0.7-14-1.5c-4.3-2.6-9.6-8.1-9.5-12.3
				c0.1-4,5.8-10.7,10-11.5c9.2-1.8,19.2-1.8,28.4,0c4.2,0.8,8.1,6.9,10.6,11.5C436.1,352.5,435.1,357.1,435.4,361.6z"></path>
			<path class="st0" d="M370.4,439c-8.2,0-16.8,1.5-24.4-0.6c-5.1-1.4-8.7-8-13-12.3c4.1-4,8-11.2,12.4-11.6
				c17.2-1.4,34.6-1.4,51.7,0c4.4,0.4,8.3,7.6,12.5,11.7c-4.4,4.2-8.2,10.8-13.4,12.2C388,440.5,379,439,370.4,439z"></path>
			<path class="st0" d="M589.9,375.5c0-8.6-1.3-17.5,0.5-25.7c1.1-4.8,7.2-11.6,11.1-11.7c4.3-0.1,12.2,6.3,12.5,10.4
				c1.4,17.6,1.5,35.4,0.1,52.9c-0.3,4.3-7.9,8-12.1,12c-4-4.5-10.3-8.4-11.6-13.6C588.4,392.2,589.9,383.7,589.9,375.5z"></path>
			<path class="st0" d="M333.1,362.5c0-5-1.6-10.8,0.4-14.8c2.3-4.4,7.9-9.8,12-9.7c4.1,0,10.6,5.8,11.5,10
				c1.9,8.2,2.1,17.5,0.2,25.6c-1.2,5.2-6.8,11.9-11.6,13c-8.7,2-12.7-4.8-12.9-13.3c-0.1-3.6,0-7.3,0-10.9
				C332.9,362.5,333,362.5,333.1,362.5z"></path>
			<path class="st0" d="M461.1,439.1c-3.6,0-7.3,0-10.9,0c-8.7,0.1-15.4-4.1-13.6-12.6c1-4.8,7.7-10.5,13-12c7.1-2.1,15.7-2,22.9,0
				c5.3,1.5,12.2,7,13.2,11.8c1.7,8.4-4.9,12.8-13.6,12.8C468.4,439,464.8,439,461.1,439.1z"></path>
			<path class="st0" d="M487,285.1c-5,0-11,1.7-14.7-0.4c-4.6-2.7-9.6-8.5-10-13.4c-0.3-3.3,6.5-9.4,11.1-10.4
				c7.8-1.8,16.6-2,24.3-0.1c5.2,1.3,12,6.6,13.3,11.4c2.4,8.9-4.8,12.6-13,13.3c-3.6,0.3-7.3,0-10.9,0
				C487,285.3,487,285.2,487,285.1z"></path>
		</g>
	</g>
</g>
</svg></svg></g></svg>