<?xml version="1.0" standalone="no"?>
<!DOCTYPE svg PUBLIC "-//W3C//DTD SVG 20010904//EN"
 "http://www.w3.org/TR/2001/REC-SVG-20010904/DTD/svg10.dtd">
<svg version="1.0" xmlns="http://www.w3.org/2000/svg"
 width="700.000000pt" height="700.000000pt" viewBox="0 0 700.000000 700.000000"
 preserveAspectRatio="xMidYMid meet">
<metadata>
Created by potrace 1.14, written by Peter Selinger 2001-2017
</metadata>
<g transform="translate(0.000000,700.000000) scale(0.100000,-0.100000)"
fill="#000000" stroke="none">
<path d="M2197 6104 c-1 -1 -24 -5 -51 -8 -65 -9 -158 -41 -204 -70 -85 -54
-156 -161 -180 -271 -13 -58 -15 -104 -13 -318 1 -154 2 -159 26 -182 47 -48
129 -25 139 38 3 18 7 122 8 232 3 200 4 201 33 259 31 62 65 93 130 121 33
15 77 18 251 21 115 2 222 8 237 13 33 13 50 52 41 98 -10 51 -42 60 -204 62
-74 1 -152 2 -173 4 -21 1 -39 2 -40 1z"/>
<path d="M4427 6089 c-38 -15 -53 -76 -31 -121 18 -36 37 -38 279 -42 211 -2
236 -7 306 -57 41 -29 87 -113 94 -174 3 -27 7 -135 8 -238 2 -188 2 -188 27
-207 36 -28 85 -26 115 5 14 13 26 32 26 42 4 60 -1 414 -6 443 -29 168 -166
311 -330 348 -58 13 -454 13 -488 1z"/>
<path d="M2458 5569 c-79 -9 -128 -43 -166 -114 -13 -24 -16 -67 -16 -225 -1
-183 1 -198 22 -241 46 -95 108 -114 352 -113 171 0 236 16 274 67 43 58 50
99 47 291 -2 231 -18 272 -120 322 -26 13 -68 17 -185 18 -83 1 -177 -1 -208
-5z m307 -183 c31 -20 38 -59 33 -191 -4 -146 -3 -145 -188 -145 -111 0 -140
3 -150 15 -12 15 -22 264 -12 308 6 25 50 33 179 30 84 -1 121 -6 138 -17z"/>
<path d="M3250 5572 c-47 -6 -79 -24 -88 -50 -12 -37 -5 -73 19 -97 18 -19 34
-20 247 -22 125 -1 232 -2 238 -2 8 -1 12 -45 12 -138 1 -76 6 -149 13 -164
20 -50 97 -62 138 -22 13 14 16 48 19 216 2 132 -1 209 -8 227 -20 49 -39 53
-312 54 -139 0 -264 0 -278 -2z"/>
<path d="M4237 5569 c-105 -15 -164 -59 -189 -142 -18 -58 -17 -357 1 -416 17
-58 65 -106 122 -122 26 -7 111 -12 209 -12 133 -1 175 3 218 17 66 22 102 67
119 146 17 81 17 303 0 377 -16 66 -69 120 -141 143 -46 15 -256 20 -339 9z
m307 -179 c16 -16 17 -256 1 -297 -17 -40 -44 -46 -194 -41 -148 4 -144 0
-146 170 -2 150 0 167 26 176 31 12 300 5 313 -8z"/>
<path d="M3255 5220 c-40 -9 -83 -37 -90 -60 -8 -24 18 -74 47 -94 31 -22 207
-22 248 -1 57 30 40 104 -32 141 -31 16 -128 24 -173 14z"/>
<path d="M3194 4854 c-25 -12 -33 -23 -36 -49 -10 -89 21 -105 201 -107 l142
-2 -3 -85 -3 -85 -48 -3 c-90 -6 -129 -47 -112 -116 13 -51 36 -56 244 -56
179 1 193 2 223 23 47 31 48 65 5 112 -28 31 -41 37 -78 39 l-44 2 -2 81 c-2
45 -2 82 0 83 1 0 22 2 47 5 74 8 99 22 111 63 14 46 -1 88 -36 101 -15 6
-146 10 -303 10 -230 0 -282 -3 -308 -16z"/>
<path d="M2693 4685 c-38 -16 -64 -61 -53 -91 15 -38 68 -74 110 -74 41 0 50
-11 50 -59 0 -44 19 -87 43 -98 30 -14 196 -17 229 -4 38 14 68 47 68 74 0 23
-52 86 -74 88 -6 1 -26 3 -45 5 -36 3 -54 20 -46 43 8 20 -30 93 -57 111 -31
20 -182 23 -225 5z"/>
<path d="M2340 4683 c-19 -8 -45 -34 -57 -58 -6 -11 -10 -67 -8 -124 2 -99 3
-106 28 -127 23 -19 32 -21 59 -13 58 16 86 70 86 163 0 83 -11 119 -45 146
-26 20 -37 23 -63 13z"/>
<path d="M4082 4674 c-45 -31 -52 -62 -52 -234 0 -100 4 -170 11 -183 16 -30
60 -77 74 -77 6 0 28 15 48 34 41 38 39 25 40 242 0 160 -5 184 -46 212 -39
26 -46 27 -75 6z"/>
<path d="M4609 4677 c-28 -21 -51 -66 -53 -102 -3 -44 -6 -46 -58 -51 -84 -8
-102 -23 -110 -89 -6 -55 31 -85 105 -85 55 0 66 -9 62 -45 -1 -17 2 -39 7
-50 16 -31 60 -75 76 -75 23 0 70 32 80 54 12 28 13 374 0 401 -10 23 -57 55
-80 55 -7 0 -20 -6 -29 -13z"/>
<path d="M2421 4170 c-67 -5 -76 -8 -107 -40 -19 -19 -34 -37 -34 -42 0 -4 17
-25 38 -48 27 -28 48 -40 68 -41 16 -1 93 -1 170 -1 154 -1 176 5 222 62 l22
29 -38 40 c-39 41 -39 41 -118 42 -43 1 -95 2 -114 3 -19 0 -68 -1 -109 -4z"/>
<path d="M3076 4165 c-47 -16 -82 -50 -91 -87 -5 -21 -1 -33 19 -52 27 -27 41
-29 196 -26 78 1 113 22 118 68 4 35 -30 75 -78 94 -41 16 -122 17 -164 3z"/>
<path d="M3596 4165 c-67 -23 -98 -69 -72 -106 27 -39 75 -67 111 -64 34 2 35
1 36 -34 2 -98 1 -133 -5 -138 -3 -3 -99 -7 -213 -8 -114 -1 -213 -3 -220 -4
-26 -3 -73 -60 -73 -88 1 -71 19 -75 344 -76 303 -1 318 2 337 51 6 14 10 107
10 206 0 195 -2 204 -62 248 -31 23 -142 30 -193 13z"/>
<path d="M4429 3982 c-31 -15 -46 -46 -53 -112 -3 -25 -5 -46 -5 -47 -1 -2
-37 -3 -81 -3 -57 0 -80 4 -81 13 -3 22 -7 72 -8 90 -2 29 -47 67 -80 67 -69
0 -88 -30 -90 -150 -2 -95 14 -139 62 -174 25 -18 42 -20 203 -20 l177 -1 43
49 c36 39 44 55 44 87 0 37 2 39 33 40 84 2 117 19 131 66 9 28 -42 88 -89
103 -43 14 -169 9 -206 -8z"/>
<path d="M2418 3807 c-53 -13 -105 -63 -127 -122 -15 -42 -18 -78 -16 -230 2
-160 4 -184 22 -220 51 -98 96 -114 325 -114 184 -1 222 6 277 47 61 45 71 85
72 298 2 238 -10 277 -106 327 -36 19 -57 22 -225 22 -102 1 -202 -3 -222 -8z
m350 -178 c27 -17 35 -66 30 -198 -4 -139 0 -136 -183 -136 -96 0 -148 4 -156
12 -7 7 -11 56 -11 145 0 184 -1 178 24 187 37 13 271 6 296 -10z"/>
<path d="M3213 3450 c-51 -31 -58 -47 -60 -141 -2 -106 8 -141 50 -168 28 -17
34 -18 58 -5 43 22 69 66 69 116 l0 43 145 0 c138 1 145 2 170 25 41 39 34
110 -15 135 -44 23 -379 19 -417 -5z"/>
<path d="M4251 3454 c-32 -13 -41 -32 -50 -109 l-6 -50 -82 -1 -83 -1 0 39 c0
21 0 40 0 43 1 15 -33 66 -49 75 -27 14 -64 13 -86 -4 -18 -13 -19 -26 -17
-152 1 -110 4 -141 17 -153 14 -14 63 -16 385 -16 358 0 369 1 397 21 42 31
55 66 54 147 -1 98 -4 106 -36 139 -34 33 -63 36 -93 8 -40 -37 -55 -68 -49
-100 5 -22 2 -32 -11 -38 -19 -9 -147 -10 -157 -1 -3 3 -7 32 -10 64 -2 33
-11 65 -20 75 -21 23 -67 30 -104 14z"/>
<path d="M5149 3462 c-15 -2 -35 -12 -45 -24 -17 -18 -19 -40 -20 -218 -1
-108 -5 -215 -8 -236 -21 -107 -103 -189 -211 -210 -21 -4 -124 -7 -230 -8
-161 -1 -195 -4 -217 -18 -50 -33 -38 -126 18 -145 42 -14 439 -9 494 7 160
44 293 189 315 343 12 82 10 450 -3 473 -13 25 -55 41 -93 36z"/>
<path d="M1799 3436 c-15 -13 -32 -33 -38 -45 -18 -33 -13 -394 6 -467 42
-163 151 -271 311 -312 58 -15 110 -18 283 -17 l211 1 24 27 c31 36 31 78 0
114 l-24 27 -203 2 c-112 0 -220 4 -239 9 -77 16 -139 66 -178 140 -25 48 -26
58 -29 239 -3 224 -5 244 -32 262 -11 8 -27 21 -35 29 -19 20 -26 19 -57 -9z"/>
<path d="M1081 1920 c0 -41 4 -60 12 -59 7 1 54 1 105 0 l92 -1 0 -513 0 -513
80 0 80 -1 0 513 0 514 99 0 99 0 3 43 c7 84 32 77 -286 77 l-283 0 -1 -60z"/>
<path d="M1742 1408 l3 -573 75 0 75 0 3 268 2 267 145 0 c131 0 145 -2 146
-17 1 -10 2 -126 4 -258 1 -132 3 -245 4 -251 1 -8 25 -11 74 -9 39 1 74 3 77
4 3 0 5 258 5 571 l0 571 -80 -3 -80 -3 -1 -235 c-1 -129 -2 -240 -3 -245 -1
-7 -53 -11 -146 -10 l-145 0 0 248 0 247 -80 0 -80 0 2 -572z"/>
<path d="M2661 1733 c-29 -137 -55 -257 -56 -268 -2 -11 -31 -146 -64 -300
-34 -154 -63 -292 -66 -306 l-5 -26 75 1 c41 0 75 0 76 1 0 0 12 65 27 144
l27 144 90 0 c158 -2 142 4 154 -55 6 -29 12 -64 15 -78 2 -14 7 -41 11 -60
11 -63 13 -75 14 -86 1 -11 134 -14 145 -3 4 3 -14 102 -40 220 -25 118 -49
232 -54 254 -13 64 -89 424 -106 500 -9 39 -18 81 -21 95 -3 14 -6 32 -8 40
-2 8 -4 18 -4 23 -1 4 -36 7 -79 7 l-78 0 -53 -247z m179 -233 c22 -124 42
-234 44 -245 4 -19 -1 -20 -85 -19 -49 0 -91 3 -94 6 -4 3 1 43 9 89 9 46 18
99 21 118 3 19 7 37 9 40 2 3 7 28 10 55 4 28 14 81 22 119 7 37 14 71 15 75
2 17 10 -26 49 -238z"/>
<path d="M3230 1407 l0 -575 178 3 c197 3 263 18 314 73 83 89 91 127 93 474
3 291 -4 378 -33 449 -19 46 -66 92 -122 117 -51 23 -69 26 -242 30 l-188 4 0
-575z m349 438 c33 -10 60 -59 69 -122 13 -95 8 -613 -7 -664 -23 -83 -59
-105 -173 -108 l-78 -2 0 455 0 455 33 3 c35 3 122 -6 156 -17z"/>
<path d="M3989 1838 c0 -79 -2 -210 -4 -293 -2 -82 -6 -276 -9 -431 l-6 -280
65 0 c51 1 65 4 66 16 2 32 7 335 9 548 1 122 5 222 9 222 4 0 13 -28 21 -62
7 -35 14 -67 16 -73 9 -37 90 -388 109 -470 44 -194 39 -183 88 -181 l42 1 27
105 c15 58 29 119 31 135 3 17 19 88 36 159 17 70 33 138 35 150 20 94 60 265
63 263 1 -2 5 -183 8 -402 4 -220 9 -402 12 -405 2 -3 32 -5 64 -6 l60 0 -7
370 c-3 204 -8 425 -9 491 -2 66 -3 157 -4 203 l-1 82 -78 0 -77 0 -57 -257
c-32 -142 -76 -347 -100 -455 -24 -109 -46 -198 -49 -198 -3 0 -11 28 -17 63
-11 59 -46 224 -77 352 -8 33 -16 74 -19 91 -3 17 -21 100 -40 185 -19 85 -37
169 -41 187 l-7 32 -79 0 -79 0 -1 -142z"/>
<path d="M4918 1973 c-3 -7 -2 -1117 1 -1134 1 -3 34 -6 75 -5 59 0 76 4 78
16 3 13 2 1080 -1 1118 -1 13 -147 18 -153 5z"/>
<path d="M5260 1406 l0 -574 63 1 c34 1 64 5 67 8 3 4 5 180 4 390 l-1 384 20
-45 c11 -25 36 -85 57 -135 120 -288 241 -572 248 -585 9 -15 101 -26 104 -12
0 4 2 262 3 575 l2 567 -68 0 -68 0 2 -375 c1 -206 1 -375 -1 -375 -2 0 -12
21 -23 48 -12 26 -27 61 -34 77 -7 17 -27 64 -45 105 -18 41 -40 93 -50 115
-9 22 -52 122 -95 223 l-78 182 -53 0 -54 0 0 -574z"/>
</g>
</svg>
